<?xml version="1.0" encoding="UTF-8"?>
<svg width="24px" height="24px" viewBox="0 0 24 24" version="1.1" xmlns="http://www.w3.org/2000/svg">
    <g stroke="none" stroke-width="1" fill="none" fill-rule="evenodd">
        <path d="M12,2 C15.865,2 19,5.135 19,9 C19,14.25 12,22 12,22 C12,22 5,14.25 5,9 C5,5.135 8.135,2 12,2 Z M12,4 C9.2385763,4 7,6.23857625 7,9 C7,11.7614237 9.2385763,14 12,14 C14.7614237,14 17,11.7614237 17,9 C17,6.23857625 14.7614237,4 12,4 Z M12,6 C13.6568542,6 15,7.34314575 15,9 C15,10.6568542 13.6568542,12 12,12 C10.3431458,12 9,10.6568542 9,9 C9,7.34314575 10.3431458,6 12,6 Z" fill="#4CAF50"></path>
    </g>
</svg>
